<svg xmlns="http://www.w3.org/2000/svg" xmlns:xlink="http://www.w3.org/1999/xlink" viewBox="0 0 930 930">
  <defs>
    <style>
      .cls-1 {
        fill: #bf935b;
      }

      .cls-2 {
        fill: #967e72;
      }

      .cls-3 {
        fill: #351f17;
      }

      .cls-4 {
        fill: #eedb7f;
      }

      .cls-5 {
        fill: url(#linear-gradient);
      }

      .cls-11, .cls-12, .cls-13, .cls-6, .cls-7, .cls-8 {
        stroke: #af8043;
      }

      .cls-10, .cls-11, .cls-12, .cls-13, .cls-14, .cls-6, .cls-7, .cls-8, .cls-9 {
        stroke-miterlimit: 10;
      }

      .cls-6 {
        fill: url(#linear-gradient-2);
      }

      .cls-7 {
        fill: url(#linear-gradient-3);
      }

      .cls-10, .cls-12, .cls-13, .cls-14, .cls-8, .cls-9 {
        fill: none;
      }

      .cls-8 {
        stroke-width: 5px;
      }

      .cls-10, .cls-9 {
        stroke-width: 3px;
      }

      .cls-9 {
        stroke: url(#linear-gradient-4);
      }

      .cls-10 {
        stroke: url(#linear-gradient-5);
      }

      .cls-11 {
        fill: #deb15c;
      }

      .cls-13 {
        stroke-width: 9px;
      }

      .cls-14 {
        stroke-width: 8px;
        stroke: url(#linear-gradient-6);
      }

      .cls-15 {
        fill: url(#linear-gradient-7);
      }
    </style>
    <linearGradient id="linear-gradient" x1="302.29513" y1="611.64723" x2="656.52429" y2="257.41807" gradientUnits="userSpaceOnUse">
      <stop offset="0.00541" stop-color="#bf935b" stop-opacity="0.3"/>
      <stop offset="0.47027" stop-color="#e7ffff"/>
      <stop offset="0.95676" stop-color="#bf935b" stop-opacity="0.1"/>
    </linearGradient>
    <linearGradient id="linear-gradient-2" x1="564.73196" y1="486.00773" x2="777.58715" y2="486.00773" gradientUnits="userSpaceOnUse">
      <stop offset="0.00541" stop-color="#bf935b" stop-opacity="0.3"/>
      <stop offset="0.47027" stop-color="#bf935b"/>
      <stop offset="0.54116" stop-color="#bf935b" stop-opacity="0.97563"/>
      <stop offset="0.62127" stop-color="#bf935b" stop-opacity="0.90423"/>
      <stop offset="0.70589" stop-color="#bf935b" stop-opacity="0.78575"/>
      <stop offset="0.79362" stop-color="#bf935b" stop-opacity="0.62006"/>
      <stop offset="0.88299" stop-color="#bf935b" stop-opacity="0.40909"/>
      <stop offset="0.88649" stop-color="#bf935b" stop-opacity="0.4"/>
    </linearGradient>
    <linearGradient id="linear-gradient-3" x1="232.97938" y1="436.23711" x2="415.14433" y2="436.23711" xlink:href="#linear-gradient-2"/>
    <linearGradient id="linear-gradient-4" x1="340.89383" y1="373.85264" x2="711.5649" y2="373.85264" gradientUnits="userSpaceOnUse">
      <stop offset="0.00541" stop-color="#fff" stop-opacity="0.3"/>
      <stop offset="0.47027" stop-color="#d8aa6f"/>
      <stop offset="0.95676" stop-color="#bf935b" stop-opacity="0.1"/>
    </linearGradient>
    <linearGradient id="linear-gradient-5" x1="340.88731" y1="593.89967" x2="709.99999" y2="593.89967" xlink:href="#linear-gradient-4"/>
    <linearGradient id="linear-gradient-6" x1="478.42268" y1="181.04124" x2="478.42268" y2="688.5567" xlink:href="#linear-gradient-4"/>
    <linearGradient id="linear-gradient-7" x1="415.56828" y1="582.28383" x2="611.90088" y2="385.95124" gradientUnits="userSpaceOnUse">
      <stop offset="0.00541" stop-color="#fff" stop-opacity="0.3"/>
      <stop offset="0.40541" stop-color="#d8aa6f" stop-opacity="0.7"/>
      <stop offset="0.68108" stop-color="#bf935b"/>
      <stop offset="1" stop-color="#bf935b" stop-opacity="0.2"/>
    </linearGradient>
  </defs>
  <title>BlakeLogoV1</title>
  <g id="Layer_4" data-name="Layer 4">
    <g>
      <path class="cls-1" d="M568.567,123.701c-161.19693,0-294.55345,119.11248-316.90929,274.11923,34.68645-122.78181,147.55117-212.7584,281.43506-212.7584,161.50064,0,292.42268,130.922,292.42268,292.42268,0,139.54834-97.75625,256.24811-228.51982,285.39979C760.532,748.49469,888.79381,611.20153,888.79381,443.92784,888.79381,267.07143,745.42342,123.701,568.567,123.701Z" transform="translate(-47 -47)"/>
      <path class="cls-2" d="M565.69072,794.83505c-195.38925,0-353.78351-160.1113-353.78351-357.61856S370.30147,79.59794,565.69072,79.59794a349.304,349.304,0,0,1,185.84282,53.28379A383.91762,383.91762,0,0,0,509.12371,47c-213.9221,0-387.34021,174.70586-387.34021,390.21649S295.20161,827.433,509.12371,827.433a383.91762,383.91762,0,0,0,242.40983-85.88172A349.304,349.304,0,0,1,565.69072,794.83505Z" transform="translate(-47 -47)"/>
      <path class="cls-3" d="M844.07429,191.43332a413.18813,413.18813,0,0,1,88.82262,256.32956c0,230.8664-189.30043,418.02062-422.81443,418.02062S87.268,678.62929,87.268,447.76289a412.7751,412.7751,0,0,1,74.07181-236.37438A458.68288,458.68288,0,0,0,47,514.87629C47,770.10009,255.18754,977,512,977S977,770.10009,977,514.87629C977,388.93719,926.28563,274.78706,844.07429,191.43332Z" transform="translate(-47 -47)"/>
      <ellipse class="cls-4" cx="478.42268" cy="434.79897" rx="251.19588" ry="249.75773"/>
      <g>
        <ellipse class="cls-5" cx="479.40971" cy="434.53265" rx="251.19588" ry="249.75773"/>
        <path class="cls-6" d="M564.732,453.51546l7.6701,36.433,42.18557,26.84536L771.5,518.5s14.34021-36.15464-1-63l-178.92268-1.98454Z" transform="translate(-47 -47)"/>
        <polyline class="cls-7" points="415.144 428.567 411.309 407.474 234.897 405.557 232.979 466.918 415.144 466.918"/>
        <g>
          <path class="cls-8" d="M710.08171,454.40564C696.42076,363.89851,619.378,294.57578,526.38144,294.57578c-93.11706,0-170.49,66.50986-184.004,157.18935" transform="translate(-47 -47)"/>
          <path class="cls-8" d="M342.37744,514.64086c10.803,93.73853,88.74306,157.18935,184.004,157.18935,88.44339,0,163.36816-69.49746,182.15471-153.49077" transform="translate(-47 -47)"/>
          <path class="cls-9" d="M710.08171,454.40564C696.42076,363.89851,619.378,294.57578,526.38144,294.57578c-93.11706,0-170.49,66.50986-184.004,157.18935" transform="translate(-47 -47)"/>
          <path class="cls-10" d="M342.37744,514.64086c10.803,93.73853,88.74306,157.18935,184.004,157.18935,88.44339,0,163.36816-69.49746,182.15471-153.49077" transform="translate(-47 -47)"/>
          <path class="cls-11" d="M573.53825,472.10729s40.68434-3.69859,38.835-61.02645c-1.16159-36.00686-24.93837-50.85739-42.46365-56.92315a76.94539,76.94539,0,0,0-25.18216-4.1033H449.63606V523.88728H420.04748v27.73929h29.58858v64.725h99.8615s72.1221-1.84929,72.1221-75.8208C621.61965,540.5308,629.01682,490.60011,573.53825,472.10729ZM484.77252,379.643h57.32786s33.28717,0,35.13646,38.83493-35.13646,40.68434-35.13646,40.68434H484.77252Zm62.717,206.96088a22.73233,22.73233,0,0,1-2.75609.15917h-59.961V551.62656h53.62928V523.88728H484.77252V490.60011h62.87574c12.94494,0,38.835,7.35691,38.835,49.93069C586.48331,579.46217,555.17956,585.667,547.48956,586.60385Z" transform="translate(-47 -47)"/>
          <polyline class="cls-12" points="238.05 404.765 402.636 406.614 402.636 467.641 238.05 467.641"/>
          <line class="cls-12" x1="555.20219" y1="406.61441" x2="724" y2="408.5"/>
          <line class="cls-12" x1="571.84576" y1="469.49015" x2="717.93939" y2="471.33944"/>
        </g>
        <ellipse class="cls-13" cx="478.42268" cy="434.79439" rx="250.23711" ry="247.84479"/>
        <ellipse class="cls-14" cx="478.42268" cy="434.79897" rx="251.19588" ry="249.75773"/>
      </g>
      <path class="cls-15" d="M573.53825,472.10729s40.68434-3.69859,38.835-61.02645c-1.16159-36.00686-24.93837-50.85739-42.46365-56.92315a76.94539,76.94539,0,0,0-25.18216-4.1033H449.63606V523.88728H420.04748v27.73929h29.58858v64.725h99.8615s72.1221-1.84929,72.1221-75.8208C621.61965,540.5308,629.01682,490.60011,573.53825,472.10729ZM484.77252,379.643h57.32786s33.28717,0,35.13646,38.83493-35.13646,40.68434-35.13646,40.68434H484.77252Zm62.717,206.96088a22.73233,22.73233,0,0,1-2.75609.15917h-59.961V551.62656h53.62928V523.88728H484.77252V490.60011h62.87574c12.94494,0,38.835,7.35691,38.835,49.93069C586.48331,579.46217,555.17956,585.667,547.48956,586.60385Z" transform="translate(-47 -47)"/>
    </g>
  </g>
</svg>
