<svg xmlns="http://www.w3.org/2000/svg" xmlns:xlink="http://www.w3.org/1999/xlink" viewBox="0 0 1920 840">
  <defs>
    <style>
      .cls-1 {
        isolation: isolate;
      }

      .cls-2, .cls-37 {
        fill: #36393f;
      }

      .cls-3 {
        fill: none;
        stroke: #fff;
        stroke-miterlimit: 10;
        stroke-width: 3px;
      }

      .cls-4 {
        fill: #9e4827;
      }

      .cls-5 {
        fill: #8f391d;
      }

      .cls-6 {
        fill: #ffd200;
      }

      .cls-17, .cls-20, .cls-7 {
        fill: #ffde4c;
      }

      .cls-8 {
        fill: #ffc300;
      }

      .cls-9 {
        fill: url(#linear-gradient);
      }

      .cls-10 {
        fill: url(#linear-gradient-2);
      }

      .cls-11 {
        fill: url(#linear-gradient-3);
      }

      .cls-12 {
        fill: url(#linear-gradient-4);
      }

      .cls-13 {
        fill: #ffde4b;
      }

      .cls-14 {
        mix-blend-mode: multiply;
      }

      .cls-15 {
        fill: #8e7300;
      }

      .cls-16 {
        fill: #c49205;
      }

      .cls-17 {
        opacity: 0.5;
      }

      .cls-18 {
        fill: #f9d021;
      }

      .cls-19 {
        fill: #edc51d;
      }

      .cls-20 {
        opacity: 0.4;
      }

      .cls-21 {
        fill: url(#linear-gradient-5);
      }

      .cls-22 {
        fill: url(#linear-gradient-6);
      }

      .cls-23 {
        fill: url(#linear-gradient-7);
      }

      .cls-24 {
        fill: url(#linear-gradient-8);
      }

      .cls-25 {
        fill: url(#linear-gradient-9);
      }

      .cls-26 {
        fill: url(#linear-gradient-10);
      }

      .cls-27 {
        fill: url(#linear-gradient-11);
      }

      .cls-28 {
        fill: url(#linear-gradient-12);
      }

      .cls-29 {
        fill: url(#linear-gradient-13);
      }

      .cls-30 {
        fill: url(#linear-gradient-14);
      }

      .cls-31 {
        fill: url(#linear-gradient-15);
      }

      .cls-32 {
        fill: url(#linear-gradient-16);
      }

      .cls-33 {
        fill: url(#linear-gradient-17);
      }

      .cls-34 {
        fill: url(#linear-gradient-18);
      }

      .cls-35 {
        fill: url(#linear-gradient-19);
      }

      .cls-36 {
        fill: url(#linear-gradient-20);
      }

      .cls-37 {
        opacity: 0.3;
      }
    </style>
    <linearGradient id="linear-gradient" x1="957.82859" y1="499.51983" x2="962.17834" y2="483.28633" gradientUnits="userSpaceOnUse">
      <stop offset="0" stop-color="#ffc300"/>
      <stop offset="0.5" stop-color="#ffd200"/>
      <stop offset="0.99459" stop-color="#ffde4c"/>
    </linearGradient>
    <linearGradient id="linear-gradient-2" x1="958.24301" y1="558.61561" x2="962.90572" y2="541.21414" gradientUnits="userSpaceOnUse">
      <stop offset="0" stop-color="#ffc300"/>
      <stop offset="0.59088" stop-color="#ffc500"/>
      <stop offset="0.89345" stop-color="#ffcd00"/>
      <stop offset="1" stop-color="#ffd200"/>
    </linearGradient>
    <linearGradient id="linear-gradient-3" x1="958.81259" y1="549.07378" x2="961.68129" y2="538.36762" gradientUnits="userSpaceOnUse">
      <stop offset="0" stop-color="#ffd200"/>
      <stop offset="0.19818" stop-color="#ffd307"/>
      <stop offset="0.48111" stop-color="#ffd61a"/>
      <stop offset="0.8134" stop-color="#ffdb38"/>
      <stop offset="0.99459" stop-color="#ffde4c"/>
    </linearGradient>
    <linearGradient id="linear-gradient-4" x1="955.93941" y1="584.62179" x2="965.15353" y2="550.23422" gradientUnits="userSpaceOnUse">
      <stop offset="0" stop-color="#ffc300"/>
      <stop offset="0.5" stop-color="#ffd200"/>
      <stop offset="0.57057" stop-color="#ffd40f"/>
      <stop offset="0.74798" stop-color="#ffda30"/>
      <stop offset="0.8957" stop-color="#ffdd45"/>
      <stop offset="0.99459" stop-color="#ffde4c"/>
    </linearGradient>
    <linearGradient id="linear-gradient-5" x1="920.35694" y1="376.40161" x2="998.58937" y2="298.16918" gradientUnits="userSpaceOnUse">
      <stop offset="0" stop-color="#c49205"/>
      <stop offset="0.5" stop-color="#ffd200"/>
      <stop offset="0.99459" stop-color="#ffde4c"/>
    </linearGradient>
    <linearGradient id="linear-gradient-6" x1="994.86401" y1="301.89454" x2="924.0823" y2="372.67625" xlink:href="#linear-gradient-5"/>
    <linearGradient id="linear-gradient-7" x1="605.84455" y1="420" x2="766.23711" y2="420" gradientUnits="userSpaceOnUse">
      <stop offset="0" stop-color="#8ea604"/>
      <stop offset="1" stop-color="#b1b334"/>
    </linearGradient>
    <linearGradient id="linear-gradient-8" x1="342.42228" y1="219.79907" x2="502.81483" y2="219.79907" gradientUnits="userSpaceOnUse">
      <stop offset="0" stop-color="#d95d39"/>
      <stop offset="0.25098" stop-color="#e56b33"/>
      <stop offset="0.69914" stop-color="#f5802b"/>
      <stop offset="1" stop-color="#fb8728"/>
    </linearGradient>
    <linearGradient id="linear-gradient-9" x1="79" y1="119.6986" x2="239.39256" y2="119.6986" xlink:href="#linear-gradient-7"/>
    <linearGradient id="linear-gradient-10" x1="79" y1="319.89953" x2="239.39256" y2="319.89953" gradientUnits="userSpaceOnUse">
      <stop offset="0" stop-color="#9e4827"/>
      <stop offset="1" stop-color="#ffd200"/>
    </linearGradient>
    <linearGradient id="linear-gradient-11" x1="342.42228" y1="620.20093" x2="502.81483" y2="620.20093" gradientUnits="userSpaceOnUse">
      <stop offset="0" stop-color="#a3121a"/>
      <stop offset="1" stop-color="#b73c2c"/>
    </linearGradient>
    <linearGradient id="linear-gradient-12" x1="79" y1="520.10047" x2="239.39256" y2="520.10047" gradientUnits="userSpaceOnUse">
      <stop offset="0" stop-color="#2191fb"/>
      <stop offset="1" stop-color="#5ec8fb"/>
    </linearGradient>
    <linearGradient id="linear-gradient-13" x1="79" y1="720.3014" x2="239.39256" y2="720.3014" gradientUnits="userSpaceOnUse">
      <stop offset="0" stop-color="#59448c"/>
      <stop offset="1" stop-color="#94448c"/>
    </linearGradient>
    <linearGradient id="linear-gradient-14" x1="821.84455" y1="420" x2="982.23711" y2="420" gradientTransform="matrix(1, 0, 0, -1, 331.91834, 840)" xlink:href="#linear-gradient-10"/>
    <linearGradient id="linear-gradient-15" x1="558.42228" y1="219.79907" x2="718.81483" y2="219.79907" gradientTransform="matrix(1, 0, 0, -1, 858.76289, 439.59814)" xlink:href="#linear-gradient-12"/>
    <linearGradient id="linear-gradient-16" x1="295" y1="119.6986" x2="455.39256" y2="119.6986" gradientTransform="matrix(1, 0, 0, -1, 1385.60744, 239.39721)" xlink:href="#linear-gradient-8"/>
    <linearGradient id="linear-gradient-17" x1="295" y1="319.89953" x2="455.39256" y2="319.89953" gradientTransform="matrix(1, 0, 0, -1, 1385.60744, 639.79907)" xlink:href="#linear-gradient-11"/>
    <linearGradient id="linear-gradient-18" x1="558.42228" y1="620.20093" x2="718.81483" y2="620.20093" gradientTransform="matrix(1, 0, 0, -1, 858.76289, 1240.40186)" xlink:href="#linear-gradient-7"/>
    <linearGradient id="linear-gradient-19" x1="295" y1="520.10047" x2="455.39256" y2="520.10047" gradientTransform="matrix(1, 0, 0, -1, 1385.60744, 1040.20093)" xlink:href="#linear-gradient-13"/>
    <linearGradient id="linear-gradient-20" x1="295" y1="720.3014" x2="455.39256" y2="720.3014" gradientTransform="matrix(1, 0, 0, -1, 1385.60744, 1440.60279)" xlink:href="#linear-gradient-8"/>
  </defs>
  <title>BracketSlide</title>
  <g class="cls-1">
    <g id="Layer_1" data-name="Layer 1">
      <rect class="cls-2" x="-22" y="-162.04116" width="1972" height="1109.25"/>
      <polyline class="cls-3" points="158.669 319.373 158.669 119.172 158.669 219.272 422.092 219.272 422.092 419.473 685.514 419.473 959.473 419.473"/>
      <polyline class="cls-3" points="158.669 519.574 158.669 719.775 158.669 619.674 422.092 619.674 422.092 419.473"/>
      <polyline class="cls-3" points="1763.438 319.373 1763.438 119.172 1763.438 219.272 1500.016 219.272 1500.016 419.473 1236.593 419.473 962.634 419.473"/>
      <polyline class="cls-3" points="1763.438 519.574 1763.438 719.775 1763.438 619.674 1500.016 619.674 1500.016 419.473"/>
      <g>
        <g>
          <g>
            <g>
              <g>
                <path class="cls-4" d="M1097.25057,658.45322h-13.51708c-4.348,0-7.87268-2.1273-7.87268-4.75143V575.79589c0-2.4756-3.32521-4.48248-7.427-4.48248H852.0304c-4.10182,0-7.427,2.00688-7.427,4.48248v77.90589c0,2.62413-3.52469,4.75143-7.87263,4.75143H823.21373c-3.93776,0-7.1299,1.92663-7.1299,4.30317v20.44024h288.29658V662.75639C1104.38041,660.37985,1101.18827,658.45322,1097.25057,658.45322Z"/>
                <path class="cls-5" d="M1097.25057,658.45322H823.21373c-3.93776,0-7.1299,1.92663-7.1299,4.30317v20.44024h288.29658V662.75639C1104.38041,660.37985,1101.18827,658.45322,1097.25057,658.45322Z"/>
                <path class="cls-6" d="M1115.98656,289.51627s-8.35642-17.64134-21.3553-20.42681c-12.34853-2.64612-20.42681,0-22.28379.92849a35.775,35.775,0,0,0-17.27978,17.74765c-.223.49434-.36156-.53865-.36156-1.07187V269.7278a1.5668,1.5668,0,0,0-1.56683-1.56683H866.86071a1.5668,1.5668,0,0,0-1.56683,1.56683v16.96594c0,.53321-.13856.63771-.36156.14338A32.247,32.247,0,0,0,847.65254,270.018c-1.857-.92849-9.93527-3.57461-22.28379-.92849-12.99888,2.78547-21.3553,20.42681-21.3553,20.42681s-6.49944,11.1419-1.857,26.92625a94.62967,94.62967,0,0,0,9.5957,20.87145,79.84253,79.84253,0,0,0,13.12038,16.48611l71.99,69.419a11.08418,11.08418,0,0,1,2.78547,5.57095c.63324,3.39808-.05452,7.264-2.78547,8.35642a11.17621,11.17621,0,0,1-7.13409.43721,1.70988,1.70988,0,0,1-1.2191-1.3546c-.19149-1.0679-1.19615-2.59778-5.57418-1.86809-5.57095.92849-5.57095,5.57095-5.57095,5.57095,0,4.17821,1.857,6.49944,3.714,7.77612a9.04323,9.04323,0,0,0,5.13538,1.5088h10.34482a12.907,12.907,0,0,0,8.40612-3.06905,30.46548,30.46548,0,0,0,3.11569-3.09813,18.90177,18.90177,0,0,0,4.56669-12.44339v-1.24528a.29275.29275,0,0,1,.46215-.23921c17.56846,12.67648,34.26855,31.95112,37.16431,35.35635a1.85213,1.85213,0,0,1,.44169,1.20181l.00006,8.21735a12.594,12.594,0,0,1-.342,2.94138c-1.68572,7.00154-5.18207,9.47708-6.53486,10.19453a1.032,1.032,0,0,0-.55118.91636v6.94283a.944.944,0,0,0,.64417.90373c2.088.67772,8.49079,4.22207,7.71225,22.12908-.69637,16.01648-5.04867,22.1097-7.1813,24.15528a3.91686,3.91686,0,0,0-1.17512,2.8333l.00011,7.8911a1.46531,1.46531,0,0,1-1.32655,1.44793c-11.98436,1.28965-28.51393,9.22535-32.86913,11.40213a1.96652,1.96652,0,0,0-1.08711,1.76642v4.35633h103.991v-4.35633a1.96652,1.96652,0,0,0-1.08711-1.76642c-4.35519-2.17678-20.88477-10.11248-32.86913-11.40213a1.46531,1.46531,0,0,1-1.32655-1.44793l.00011-7.8911a3.91685,3.91685,0,0,0-1.17512-2.8333c-2.13263-2.04558-6.48493-8.13881-7.1813-24.15528-.77854-17.907,5.62422-21.45136,7.71225-22.12908a.944.944,0,0,0,.64417-.90373v-6.94283a1.032,1.032,0,0,0-.55118-.91636c-1.35278-.71745-4.84913-3.193-6.53486-10.19453a12.594,12.594,0,0,1-.342-2.94138l.00006-8.21735a1.85213,1.85213,0,0,1,.44169-1.20181c2.89576-3.40522,19.59585-22.67986,37.16431-35.35635a.29275.29275,0,0,1,.46215.23921v1.24528a18.90177,18.90177,0,0,0,4.56669,12.44339,30.46549,30.46549,0,0,0,3.11569,3.09813,12.907,12.907,0,0,0,8.40612,3.06905h10.34482a9.04323,9.04323,0,0,0,5.13538-1.5088c1.857-1.27668,3.714-3.5979,3.714-7.77612,0,0,0-4.64246-5.57095-5.57095-4.378-.72969-5.38269.80019-5.57418,1.86809a1.70988,1.70988,0,0,1-1.2191,1.3546,11.1762,11.1762,0,0,1-7.13409-.43721c-2.731-1.09238-3.41871-4.95834-2.78548-8.35642a11.08418,11.08418,0,0,1,2.78548-5.57095l71.99-69.419a79.84443,79.84443,0,0,0,13.12038-16.48611,94.62709,94.62709,0,0,0,9.5957-20.87145C1122.486,300.65817,1115.98656,289.51627,1115.98656,289.51627ZM895.22384,402.12255l-64.28415-60.61076a110.78179,110.78179,0,0,1-12.07039-16.71285c-3.18619-5.73512-4.49891-14.50127-4.64246-18.56983s.06375-8.54774.92849-11.1419c1.857-5.57095,4.22825-7.26183,7.11443-9.59944a20.266,20.266,0,0,1,11.56438-4.60222c2.40924-.13488,9.27412.40743,12.8899,2.13127,4.64246,2.21331,5.57095,4.99878,7.42793,8.35642,1.421,2.56937,1.71208,9.71969,0,14.85586-.95462,2.86379-1.66385,3.34266-2.605,4.07632a7.74617,7.74617,0,0,0-2.90335,5.04516c-.32115,2.30921-.20826,5.16094,1.79436,6.66288,3.714,2.78547,8.35642,0,8.35642,0a12.97588,12.97588,0,0,0,5.57095-6.49944,24.87038,24.87038,0,0,0,1.857-8.35642,3.29837,3.29837,0,0,1,1.857-2.78547c1.15993-.58-.82784.65143-.39244,1.65756a5.80843,5.80843,0,0,1,.44849,1.81935,272.11464,272.11464,0,0,0,7.37188,42.94766c4.9236,18.54982,17.56766,45.9045,20.01368,51.11939A.184.184,0,0,1,895.22384,402.12255Zm211.97-95.89343c-.1436,4.06855-1.45632,12.8347-4.64246,18.56983a110.7818,110.7818,0,0,1-12.07039,16.71285l-64.28415,60.61076a.184.184,0,0,1-.29712-.20645c2.446-5.21489,15.09008-32.56957,20.01368-51.11939a272.11471,272.11471,0,0,0,7.37188-42.94766,5.80845,5.80845,0,0,1,.44849-1.81935c.4354-1.00613-2.48087-2.23753-1.32093-1.65756a3.29837,3.29837,0,0,1,1.857,2.78547,24.87037,24.87037,0,0,0,1.857,8.35642,12.97588,12.97588,0,0,0,5.57095,6.49944s4.64246,2.78547,8.35642,0c2.00263-1.50194,2.11551-4.35366,1.7943-6.66288a7.74548,7.74548,0,0,0-2.90335-5.04516c-.94107-.73366-1.65025-1.21252-2.60492-4.07632-1.71208-5.13617,0-11.1419.92849-13.92737s4.74077-8.81594,10.64965-10.78557c2.78547-.92849,7.25894-.76549,9.66823-.63061a20.266,20.266,0,0,1,11.56432,4.60222c2.88624,2.33761,5.25745,4.02849,7.11443,9.59944C1107.13007,297.68138,1107.33749,302.16051,1107.19388,306.22912Z"/>
                <path class="cls-7" d="M1045.91345,350.79671c5.178-19.50847,7.54144-43.88837,7.81554-44.75365a.11326.11326,0,0,0,.00587-.03379l.97127-19.31553V269.91548a1.75451,1.75451,0,0,0-1.75451-1.75451H1014.781l.52553.94042c11.36538,20.338,18.97279,39.9132,26.07758,64.55069Z"/>
              </g>
              <g>
                <g id="_Group_" data-name="&lt;Group&gt;">
                  <path id="_Compound_Path_" data-name="&lt;Compound Path&gt;" class="cls-6" d="M1087.5871,154.47041a8.97822,8.97822,0,0,0-9.00346,8.92587,8.537,8.537,0,0,0,2.5578,6.18723c-9.00346,19.27178-23.63412,50.81663-37.65087,52.74383-18.41619,2.53576-24.4526-9.23015-26.49885-15.72172a8.95018,8.95018,0,1,0-3.47861-.30428c-4.50173,6.18723-14.63063,17.54745-27.41965,16.026-12.37978-1.52146-20.25781-23.53187-23.73642-36.10921a8.84558,8.84558,0,0,0,6.75261-8.62159,9.004,9.004,0,1,0-11.25434,8.62159c-3.47861,12.5774-11.35666,34.58776-23.73642,36.10921-12.89134,1.62286-23.12256-10.04164-27.522-16.12746a8.79232,8.79232,0,0,0,5.93411-8.31731,9.00381,9.00381,0,0,0-18.00695,0,8.87459,8.87459,0,0,0,8.59422,8.82446c-1.94392,6.49157-8.08266,18.15607-26.49885,15.62031-13.096-1.82574-27.7266-33.472-36.83238-52.64242a8.86222,8.86222,0,0,0,2.66011-6.2887,9.00381,9.00381,0,1,0-9.00347,8.92587,4.23306,4.23306,0,0,0,1.12543-.10141l22.50868,62.684,8.69653,25.2562h188.56127l8.69654-25.2562,22.50868-62.78547a12.64373,12.64373,0,0,0,1.94393.20287,8.926,8.926,0,1,0,.10232-17.85167ZM909.3593,249.51074l-6.95723-10.95448,6.95723-10.95448,6.95723,10.95448Zm51.36071,0-6.95723-10.95448L960.72,227.60179l6.95723,10.95448Zm51.36072,0-6.95722-10.95448,6.95722-10.95448,6.95722,10.95448Z"/>
                </g>
                <g>
                  <g id="_Group_2" data-name="&lt;Group&gt;">
                    <path id="_Compound_Path_2" data-name="&lt;Compound Path&gt;" class="cls-8" d="M846.68414,205.95945l10.3937,28.94522,8.69653,25.2562h57.086l-8.07883-3.00976a149.52586,149.52586,0,0,1-65.222-47.5445Z"/>
                  </g>
                  <path class="cls-8" d="M952.015,176.64306a10.39387,10.39387,0,0,1,1.10247-4.66144,8.85926,8.85926,0,0,0-1.98455,5.58993c0,4.61208,4.11468,9.11094,8.86708,8.77426C955.857,185.08506,952.015,181.29141,952.015,176.64306Z"/>
                  <path class="cls-8" d="M895.377,197.06987a10.39387,10.39387,0,0,1,1.10247-4.66144,8.85926,8.85926,0,0,0-1.98455,5.58993c0,4.61208,4.11468,9.11094,8.86708,8.77426C899.219,205.51187,895.377,201.71822,895.377,197.06987Z"/>
                  <path class="cls-8" d="M825.24219,163.19855a10.39387,10.39387,0,0,1,.69654-4.73913,8.85926,8.85926,0,0,0-1.49529,5.7402c.39757,4.59491,4.88476,8.72232,9.59044,7.97723C829.7976,171.27793,825.6429,167.8296,825.24219,163.19855Z"/>
                  <path class="cls-8" d="M1007.887,197.06987a10.39388,10.39388,0,0,1,1.10247-4.66144,8.85926,8.85926,0,0,0-1.98455,5.58993c0,4.61208,4.11468,9.11094,8.86708,8.77426C1011.72895,205.51187,1007.887,201.71822,1007.887,197.06987Z"/>
                  <path class="cls-8" d="M1079.47365,162.461a10.39388,10.39388,0,0,1,1.10247-4.66144,8.85926,8.85926,0,0,0-1.98455,5.58993c0,4.61208,4.11468,9.11094,8.86708,8.77426C1083.31563,170.903,1079.47365,167.10931,1079.47365,162.461Z"/>
                </g>
                <g>
                  <g>
                    <path class="cls-7" d="M1080.6225,170.69389c-9.03953,19.34792-23.37935,49.74252-37.13195,51.63345-17.11226,2.35619-23.53316-7.6337-25.99861-14.26847a10.9134,10.9134,0,0,1-1.97775.10059,7.56224,7.56224,0,0,1-2.73424-.82813c-4.754,6.29888,25.17112,50.93719,41.50835,52.82954l5.4623-15.72593,3.28157-9.5303,22.11718-61.69328a11.15208,11.15208,0,0,1-1.99651-.585A7.9954,7.9954,0,0,1,1080.6225,170.69389Z"/>
                    <path class="cls-8" d="M1017.49195,208.05887c-.18786-.5055-.35538-.99366-.50023-1.45326a5.17627,5.17627,0,0,1-3.60346-.093c-.19166.26341-.39692.53865-.6083.81872a7.56224,7.56224,0,0,0,2.73424.82813A10.9134,10.9134,0,0,0,1017.49195,208.05887Z"/>
                    <path class="cls-8" d="M1081.14138,169.58349c-.16967.3632-.34524.73881-.51888,1.1104a7.9954,7.9954,0,0,0,2.53034,1.93247,11.15208,11.15208,0,0,0,1.99651.585l.39148-1.09216A8.464,8.464,0,0,1,1081.14138,169.58349Z"/>
                  </g>
                  <path class="cls-7" d="M1087.57474,154.47068a8.88074,8.88074,0,0,0-6.23694,2.5508,8.91153,8.91153,0,0,1,9.6883,14.58243,8.91443,8.91443,0,0,0-3.45135-17.13323Z"/>
                  <path class="cls-7" d="M1016.0809,188.82486a8.88074,8.88074,0,0,0-6.23694,2.5508,8.91153,8.91153,0,0,1,9.68829,14.58243,8.91443,8.91443,0,0,0-3.45135-17.13323Z"/>
                  <path class="cls-7" d="M960.37142,168.54071a8.88074,8.88074,0,0,0-6.23694,2.5508,8.91153,8.91153,0,0,1,9.6883,14.58243,8.91443,8.91443,0,0,0-3.45135-17.13323Z"/>
                  <path class="cls-7" d="M903.73344,188.82486a8.88074,8.88074,0,0,0-6.23694,2.5508,8.91153,8.91153,0,0,1,9.6883,14.58243,8.91443,8.91443,0,0,0-3.45135-17.13323Z"/>
                  <path class="cls-7" d="M833.50108,154.47068a8.88074,8.88074,0,0,0-6.23694,2.5508,8.91153,8.91153,0,0,1,9.6883,14.58243,8.91443,8.91443,0,0,0-3.45135-17.13323Z"/>
                </g>
              </g>
            </g>
            <g>
              <path class="cls-9" d="M976.06867,495.79608a.944.944,0,0,0,.64417-.90373v-6.94283a1.032,1.032,0,0,0-.55118-.91636H943.83833a1.032,1.032,0,0,0-.55118.91636v6.94283a.944.944,0,0,0,.64417.90373Z"/>
              <path class="cls-8" d="M943.28715,494.89235a.944.944,0,0,0,.64417.90373l7.9048,1.05392a39.89644,39.89644,0,0,0,16.32774,0l7.9048-1.05392a.944.944,0,0,0,.64417-.90373Z"/>
            </g>
            <g>
              <path class="cls-10" d="M943.28715,544.91375l.00011,7.8911a1.46531,1.46531,0,0,1-1.32655,1.44793h36.07856a1.46531,1.46531,0,0,1-1.32655-1.44793l.00011-7.8911Z"/>
              <path class="cls-11" d="M976.71285,544.91375a3.91685,3.91685,0,0,0-1.17512-2.8333H944.46228a3.91686,3.91686,0,0,0-1.17512,2.8333Z"/>
            </g>
            <path class="cls-12" d="M941.96072,554.25278c-11.98436,1.28965-28.51393,9.22535-32.86913,11.40213a1.96652,1.96652,0,0,0-1.08711,1.76642v4.35633h103.991v-4.35633a1.96652,1.96652,0,0,0-1.08711-1.76642c-4.35519-2.17678-20.88477-10.11248-32.86913-11.40213Z"/>
          </g>
          <g>
            <g>
              <g>
                <path class="cls-6" d="M878.90054,445.49614a8.26681,8.26681,0,0,0,2.17767,2.21182,9.139,9.139,0,0,0,5.19191,1.50883h.82114a8.42281,8.42281,0,0,1-2.85269-1.22232C883.04089,447.171,880.53374,446.78412,878.90054,445.49614Z"/>
                <path class="cls-8" d="M882.93451,436.75478c4.44982-.74165,5.41476.851,5.58293,1.92023a1.63452,1.63452,0,0,0,1.20231,1.30026c1.46188.40465,7.05889.04483,10.30318-2.54239,2.29967-1.83386,3.07785-5.8423,2.78548-8.35639a8.81889,8.81889,0,0,0-2.78548-5.571l-71.99-69.419a79.91248,79.91248,0,0,1-13.145-16.5273,94.54988,94.54988,0,0,1-9.57105-20.83023c-4.6425-15.78437,1.85695-26.92625,1.85695-26.92625s8.35645-17.64132,21.35534-20.4268a47.99,47.99,0,0,1,12.47886-1.08552,45.72907,45.72907,0,0,0-15.63922.799c-12.99889,2.78548-21.35534,20.4268-21.35534,20.4268s-6.49944,11.14187-1.85695,26.92625a94.54851,94.54851,0,0,0,9.57105,20.83023,79.91079,79.91079,0,0,0,13.145,16.5273l71.99,69.419a11.08455,11.08455,0,0,1,2.78548,5.571c.63322,3.39806-.05454,7.264-2.78548,8.35639a11.17513,11.17513,0,0,1-7.14211.435,1.63444,1.63444,0,0,1-1.20231-1.3002c-.16824-1.06932-1.13311-2.66194-5.58293-1.92029-5.571.92854-5.571,5.571-5.571,5.571a12.54761,12.54761,0,0,0,.102,1.58516C877.74807,440.14544,878.82188,437.44021,882.93451,436.75478Z"/>
              </g>
              <path class="cls-8" d="M855.316,298.82575s.36879-11.59058-9.11441-15.80534-18.9664-1.05369-22.12747,1.05369-7.37582,6.32213-8.42951,9.4832c0,0,0-2.10738,2.10738-6.32213s9.4117-7.62137,12.64427-8.42951c4.21476-1.05369,14.75165,1.05369,16.859,2.10738,2.98028,1.49014,7.37582,6.32213,8.42951,9.4832S855.316,298.82575,855.316,298.82575Z"/>
              <path class="cls-8" d="M852.52371,309.36264s-4.21476,3.16107-4.21476,7.37582,2.10738,5.26845,2.10738,5.26845,2.10738,2.10738,6.32213,1.05369,6.32213-5.26845,6.32213-5.26845a11.85145,11.85145,0,0,1-6.32213,4.21476c-4.21476,1.05369-7.37582-2.10738-7.37582-6.32213A7.90267,7.90267,0,0,1,852.52371,309.36264Z"/>
              <path class="cls-8" d="M905.20817,445.95236s-4.21476,3.55093-8.42951,3.34019c-4.2095-.21047-10.53689.42148-13.698-.63221a7.15194,7.15194,0,0,1-4.21476-3.37181,21.40558,21.40558,0,0,0,6.32213,2.10738,54.43316,54.43316,0,0,0,12.64427.52684A25.72421,25.72421,0,0,0,905.20817,445.95236Z"/>
            </g>
            <g>
              <path class="cls-8" d="M1108.03966,337.4374a47.20373,47.20373,0,0,0-8.86549,8.53457,80.09663,80.09663,0,0,1-7.212,7.95432l-71.99,69.419a8.81889,8.81889,0,0,0-2.78548,5.571c-.29236,2.51409.48581,6.52253,2.78548,8.35639,3.24429,2.58721,8.8413,2.947,10.30312,2.54239a1.63469,1.63469,0,0,0,1.20238-1.30026c.16824-1.06925,1.13318-2.66188,5.58293-1.92023,4.11263.68544,5.18651,3.39066,5.4682,4.76225a12.53481,12.53481,0,0,0,.10213-1.58516s0-4.64243-5.571-5.571c-4.44988-.74165-5.41482.851-5.58306,1.92029a1.63417,1.63417,0,0,1-1.20225,1.3002,11.17513,11.17513,0,0,1-7.14211-.435c-2.73095-1.09234-3.4187-4.95833-2.78548-8.35639a11.08454,11.08454,0,0,1,2.78548-5.571l71.99-69.419a79.92312,79.92312,0,0,0,12.966-16.23886Z"/>
              <path class="cls-8" d="M1065.7377,299.7192s.6849-11.43033,9.64785-15.80534c9.32593-4.55218,18.9664-1.05369,22.12747,1.05369s7.48119,6.32213,8.53488,9.4832c0,0-.10537-2.10738-2.21275-6.32213s-9.4117-7.62137-12.64427-8.42951c-4.21476-1.05369-14.75165,1.05369-16.859,2.10738-2.98028,1.49014-7.37582,6.32213-8.42951,9.4832S1065.7377,299.7192,1065.7377,299.7192Z"/>
              <path class="cls-8" d="M1069.54637,310.79031c-.01.01351-.01775.02753-.02907.04007a7.47258,7.47258,0,0,1,1.65359,4.69414c0,4.21476-3.16107,7.37582-7.37582,6.32213a13.31857,13.31857,0,0,1-6.59225-4.21476s2.37749,4.21476,6.59225,5.26845,6.32213-1.05369,6.32213-1.05369,2.10738-1.05369,2.10738-5.26845A8.87679,8.87679,0,0,0,1069.54637,310.79031Z"/>
              <path class="cls-8" d="M1014.79183,445.94785s4.21476,3.55544,8.64657,3.34019c4.20979-.20447,10.53689.42148,13.698-.63221a7.08629,7.08629,0,0,0,4.21476-3.578,18.52754,18.52754,0,0,1-6.32213,2.3136,54.43317,54.43317,0,0,1-12.64427.52684A28.63662,28.63662,0,0,1,1014.79183,445.94785Z"/>
            </g>
            <path class="cls-13" d="M1118.772,298.80118s0-5.57094-5.57095-13.92737c-3.714-5.57094-8.90235-13.689-18.33533-15.78435a46.49581,46.49581,0,0,0-19.73282,0,24.13953,24.13953,0,0,0-7.42793,3.714,30.51383,30.51383,0,0,0-5.57095,5.57094s21.6738-6.63344,32.7317-2.78547a30.54475,30.54475,0,0,1,11.83589,7.42794C1113.20108,289.51627,1118.772,296.79561,1118.772,298.80118Z"/>
            <path class="cls-8" d="M950.71512,467.78662c2.78547,1.857,4.33675,1.98154,8.35642,2.78547a17.569,17.569,0,0,0,8.12638.25216,4.15864,4.15864,0,0,0,2.087-1.18065l0-3.96371a1.85223,1.85223,0,0,1,.4417-1.20184c2.89584-3.40531,19.59588-22.67987,37.16429-35.35632,0,0-96.101,9.30135-141.597-159.39393v16.96594s.9846,17.20429,1.42079,21.15531c.42558,3.85485,2.16187,23.31877,7.37188,42.94766,2.48774,9.37265,7.25952,20.86837,11.06488,30.86983,5.21172,13.69775,9.85417,22.98267,19.27239,35.02476l.0581.08316a103.95746,103.95746,0,0,0,17.89816,19.65516,268.13987,268.13987,0,0,1,27.8933,28.04844,1.85222,1.85222,0,0,1,.4417,1.20184Z"/>
          </g>
        </g>
        <g>
          <path class="cls-6" d="M1053.03385,583.87271H866.96608a5.38618,5.38618,0,0,0-5.3862,5.38614v54.17277a5.38623,5.38623,0,0,0,5.3862,5.3862l131.80761-.167.0874.167h54.17277a5.38621,5.38621,0,0,0,5.38627-5.3862V589.25885A5.38615,5.38615,0,0,0,1053.03385,583.87271Z"/>
          <g>
            <g class="cls-14">
              <path class="cls-15" d="M884.03954,605.45751V588.60261h8.55711a5.01783,5.01783,0,0,1,3.88959,1.34592,4.44408,4.44408,0,0,1,1.22244,3.07463,3.89238,3.89238,0,0,1-.71,2.27819,3.63019,3.63019,0,0,1-2.11767,1.40149q3.2722.79027,3.2722,3.92664a5.29559,5.29559,0,0,1-1.15453,3.35246q-1.15453,1.47558-4.933,1.47558Zm4.7663-10.39695h2.3955a1.55239,1.55239,0,0,0,1.27184-.45687,1.52273,1.52273,0,0,0,.37044-.97549q0-1.40766-1.72871-1.40766h-2.30906Zm0,6.64318h2.519a1.81765,1.81765,0,0,0,1.37679-.463,1.47973,1.47973,0,0,0,.43835-1.0434,1.58992,1.58992,0,0,0-.426-1.0681,2.01384,2.01384,0,0,0-1.562-.48774h-2.3461Z"/>
              <path class="cls-15" d="M904.96926,588.60261v16.85491h-4.85273V588.60261Z"/>
              <path class="cls-15" d="M920.21894,605.45751h-4.69221a8.33118,8.33118,0,0,1-.17287-1.7534,4.51482,4.51482,0,0,1-4.03777,2.01271,4.44622,4.44622,0,0,1-3.32776-1.136,3.63161,3.63161,0,0,1-1.10514-2.60541,3.73471,3.73471,0,0,1,1.809-3.21663q1.809-1.22862,6.41474-1.47558v-.284a1.291,1.291,0,0,0-.37661-1.099,1.87905,1.87905,0,0,0-1.10514-.27165q-1.704,0-1.90158,1.37062l-4.49464-.41983q.96314-3.939,6.55675-3.939a12.05743,12.05743,0,0,1,2.79063.30252,4.67825,4.67825,0,0,1,2.01271.94462,3.279,3.279,0,0,1,.994,1.35827,9.74143,9.74143,0,0,1,.25313,2.75359v5.01326A6.93042,6.93042,0,0,0,920.21894,605.45751Zm-5.112-5.87761q-3.14872.33339-3.14872,2.01271,0,1.136,1.24714,1.136a2.01644,2.01644,0,0,0,1.34592-.46922,2.7535,2.7535,0,0,0,.55566-2.07445Z"/>
              <path class="cls-15" d="M935.36984,592.89968l-3.79493,4.31354,4.2271,8.24429h-5.09249l-2.35639-5.02869-1.34284,1.57127v3.45742h-4.61812V588.60261h4.61812v6.8037q0,.284-.037,2.271a13.48284,13.48284,0,0,1,.90243-1.14733l3.15181-3.63029Z"/>
              <path class="cls-15" d="M944.84069,600.95052l4.59343.3087a5.41936,5.41936,0,0,1-2.08062,3.15489,7.17924,7.17924,0,0,1-4.52551,1.30271,6.959,6.959,0,0,1-5.06265-1.83367,6.08555,6.08555,0,0,1-1.88923-4.55021,6.78988,6.78988,0,1,1,13.57036.11113q0,.25931-.01235.71618h-8.40893a3.25906,3.25906,0,0,0,.41983,1.75958,2.0365,2.0365,0,0,0,3.39568-.96931Zm-.33339-3.25985a2.27809,2.27809,0,0,0-.5109-1.71019,1.804,1.804,0,0,0-1.23634-.43835q-1.74723,0-1.74723,2.14854Z"/>
              <path class="cls-15" d="M972.42594,596.01136v9.44616h-2.53132a10.05658,10.05658,0,0,0-.67914-1.76575,5.51062,5.51062,0,0,1-4.64282,2.02506,6.96443,6.96443,0,0,1-5.359-2.27819,8.74788,8.74788,0,0,1-2.09917-6.16779,9.93856,9.93856,0,0,1,2.03126-6.353,7.231,7.231,0,0,1,6.04431-2.57454,7.33908,7.33908,0,0,1,4.85273,1.53114,7.20567,7.20567,0,0,1,2.38315,4.34647l-5.01326.49392q-.37044-2.63011-2.30906-2.63011-2.54367,0-2.54367,4.84038,0,2.92646.815,3.85872a2.5317,2.5317,0,0,0,1.97567.93227,2.3694,2.3694,0,0,0,1.59906-.568,1.97912,1.97912,0,0,0,.673-1.55584H964.832v-3.5809Z"/>
              <path class="cls-15" d="M987.63858,605.45751h-4.69221a8.33118,8.33118,0,0,1-.17287-1.7534,4.51482,4.51482,0,0,1-4.03777,2.01271,4.44622,4.44622,0,0,1-3.32776-1.136,3.63161,3.63161,0,0,1-1.10514-2.60541,3.73471,3.73471,0,0,1,1.809-3.21663q1.809-1.22862,6.41474-1.47558v-.284a1.291,1.291,0,0,0-.37661-1.099,1.87905,1.87905,0,0,0-1.10514-.27165q-1.704,0-1.90158,1.37062l-4.49464-.41983q.9631-3.939,6.55675-3.939a12.05743,12.05743,0,0,1,2.79063.30252,4.67825,4.67825,0,0,1,2.01271.94462,3.279,3.279,0,0,1,.994,1.35827,9.74143,9.74143,0,0,1,.25313,2.75359v5.01326A6.93042,6.93042,0,0,0,987.63858,605.45751Zm-5.112-5.87761q-3.14876.33339-3.14872,2.01271,0,1.136,1.24714,1.136a2.01644,2.01644,0,0,0,1.34592-.46922,2.7535,2.7535,0,0,0,.55566-2.07445Z"/>
              <path class="cls-15" d="M1008.84,605.45751h-4.77864v-7.85328a1.96434,1.96434,0,0,0-.22844-1.10514.935.935,0,0,0-.80879-.31487q-1.383,0-1.383,2.01271v7.26058h-4.72925v-7.85328q0-1.50645-1.1607-1.50645-1.19775,0-1.19775,1.50645v7.85328h-4.7416V592.89968h4.42056v1.69166a3.79757,3.79757,0,0,1,3.44507-1.951,3.75141,3.75141,0,0,1,3.5315,1.951,4.12148,4.12148,0,0,1,3.75377-1.951,4.34649,4.34649,0,0,1,2.13.50626,3.16045,3.16045,0,0,1,1.33357,1.30271,5.58186,5.58186,0,0,1,.41366,2.46341Z"/>
              <path class="cls-15" d="M1019.74317,600.95052l4.59343.3087a5.41936,5.41936,0,0,1-2.08063,3.15489,7.17924,7.17924,0,0,1-4.52551,1.30271,6.959,6.959,0,0,1-5.06265-1.83367,6.08555,6.08555,0,0,1-1.88923-4.55021,6.78988,6.78988,0,1,1,13.57036.11113q0,.25931-.01235.71618h-8.40893a3.25907,3.25907,0,0,0,.41983,1.75958,2.0365,2.0365,0,0,0,3.39568-.96931Zm-.33339-3.25985a2.27821,2.27821,0,0,0-.51038-1.71019,1.80624,1.80624,0,0,0-1.23685-.43835q-1.74723,0-1.74723,2.14854Z"/>
              <path class="cls-15" d="M1025.1639,601.90131l3.8896-.531q.33339,1.35827,2.64245,1.35827,1.91393,0,1.91393-.74088a.55142.55142,0,0,0-.37044-.50009,7.43454,7.43454,0,0,0-1.7534-.36426q-3.82785-.531-4.77864-1.6608a3.80826,3.80826,0,0,1-.95079-2.5128,3.70679,3.70679,0,0,1,1.60523-3.11785,6.89133,6.89133,0,0,1,4.21064-1.19157q4.56873,0,5.82822,3.29689l-3.72907.70383a2.15965,2.15965,0,0,0-2.18558-1.11131,2.50421,2.50421,0,0,0-1.17923.21609q-.389.21609-.389.426,0,.6174,1.1854.75117a24.78458,24.78458,0,0,1,4.187.70074,3.98837,3.98837,0,0,1,1.87586,1.30991,3.51122,3.51122,0,0,1,.77792,2.29774,3.80123,3.80123,0,0,1-1.72254,3.27426,8.137,8.137,0,0,1-4.74778,1.21113Q1026.374,605.71682,1025.1639,601.90131Z"/>
              <path class="cls-15" d="M948.45246,629.37029l4.72925.284a6.90373,6.90373,0,0,1-2.29054,4.75395,7.86256,7.86256,0,0,1-10.35373-.6174,8.85719,8.85719,0,0,1-2.11149-6.27274,9.74927,9.74927,0,0,1,2.00036-6.39622,7.82189,7.82189,0,0,1,10.72417-.58035,7.64042,7.64042,0,0,1,2.03123,4.91447l-4.828.25931a3.72288,3.72288,0,0,0-.64827-2.44489,1.95742,1.95742,0,0,0-1.525-.75322q-2.44489,0-2.44489,4.91447a7.56835,7.56835,0,0,0,.63592,3.74142,2.0085,2.0085,0,0,0,1.78427.98783Q948.2055,632.16092,948.45246,629.37029Z"/>
              <path class="cls-15" d="M967.11016,623.24572v12.55783h-4.55638v-2.0621a3.83766,3.83766,0,0,1-3.90194,2.32141,3.72154,3.72154,0,0,1-2.77211-.994,3.88035,3.88035,0,0,1-.98166-2.8462v-8.97694h4.92682v7.90267a1.96055,1.96055,0,0,0,.20374,1.0434.89761.89761,0,0,0,.79644.30252,1.2993,1.2993,0,0,0,1.02488-.4507,1.85766,1.85766,0,0,0,.39513-1.26566v-7.53223Z"/>
              <path class="cls-15" d="M974.63,639.76724h-4.92682V623.24572h4.53169v1.7781a3.54881,3.54881,0,0,1,3.54385-2.03741,4.11105,4.11105,0,0,1,3.51916,1.74723,9.50222,9.50222,0,0,1-.03087,9.55112,4.06391,4.06391,0,0,1-3.4389,1.7781,3.63316,3.63316,0,0,1-3.19811-1.60523Zm0-8.55711a1.99025,1.99025,0,0,0,.38279,1.30271,1.18614,1.18614,0,0,0,.95079.463,1.21758,1.21758,0,0,0,1.22244-.82114,7.13657,7.13657,0,0,0,.33339-2.52515,6.98571,6.98571,0,0,0-.38279-2.75976,1.22589,1.22589,0,0,0-1.14836-.79644,1.45559,1.45559,0,0,0-.90757.35809,1.41034,1.41034,0,0,0-.4507,1.17305Z"/>
            </g>
            <g>
              <path class="cls-16" d="M883.03954,605.45751V588.60261h8.55711a5.01783,5.01783,0,0,1,3.88959,1.34592,4.44408,4.44408,0,0,1,1.22244,3.07463,3.89238,3.89238,0,0,1-.71,2.27819,3.63019,3.63019,0,0,1-2.11767,1.40149q3.2722.79027,3.2722,3.92664a5.29559,5.29559,0,0,1-1.15453,3.35246q-1.15453,1.47558-4.933,1.47558Zm4.7663-10.39695h2.3955a1.55239,1.55239,0,0,0,1.27184-.45687,1.52273,1.52273,0,0,0,.37044-.97549q0-1.40766-1.72871-1.40766h-2.30906Zm0,6.64318h2.519a1.81765,1.81765,0,0,0,1.37679-.463,1.47973,1.47973,0,0,0,.43835-1.0434,1.58992,1.58992,0,0,0-.426-1.0681,2.01384,2.01384,0,0,0-1.562-.48774h-2.3461Z"/>
              <path class="cls-16" d="M903.96926,588.60261v16.85491h-4.85273V588.60261Z"/>
              <path class="cls-16" d="M919.21894,605.45751h-4.69221a8.33118,8.33118,0,0,1-.17287-1.7534,4.51482,4.51482,0,0,1-4.03777,2.01271,4.44622,4.44622,0,0,1-3.32776-1.136,3.63161,3.63161,0,0,1-1.10514-2.60541,3.73471,3.73471,0,0,1,1.809-3.21663q1.809-1.22862,6.41474-1.47558v-.284a1.291,1.291,0,0,0-.37661-1.099,1.87905,1.87905,0,0,0-1.10514-.27165q-1.704,0-1.90158,1.37062l-4.49464-.41983q.96314-3.939,6.55675-3.939a12.05743,12.05743,0,0,1,2.79063.30252,4.67825,4.67825,0,0,1,2.01271.94462,3.279,3.279,0,0,1,.994,1.35827,9.74143,9.74143,0,0,1,.25313,2.75359v5.01326A6.93042,6.93042,0,0,0,919.21894,605.45751Zm-5.112-5.87761q-3.14872.33339-3.14872,2.01271,0,1.136,1.24714,1.136a2.01644,2.01644,0,0,0,1.34592-.46922,2.7535,2.7535,0,0,0,.55566-2.07445Z"/>
              <path class="cls-16" d="M934.36984,592.89968l-3.79493,4.31354,4.2271,8.24429h-5.09249l-2.35639-5.02869-1.34284,1.57127v3.45742h-4.61812V588.60261h4.61812v6.8037q0,.284-.037,2.271a13.48284,13.48284,0,0,1,.90243-1.14733l3.15181-3.63029Z"/>
              <path class="cls-16" d="M943.84069,600.95052l4.59343.3087a5.41936,5.41936,0,0,1-2.08062,3.15489,7.17924,7.17924,0,0,1-4.52551,1.30271,6.959,6.959,0,0,1-5.06265-1.83367,6.08555,6.08555,0,0,1-1.88923-4.55021,6.78988,6.78988,0,1,1,13.57036.11113q0,.25931-.01235.71618h-8.40893a3.25906,3.25906,0,0,0,.41983,1.75958,2.0365,2.0365,0,0,0,3.39568-.96931Zm-.33339-3.25985a2.27809,2.27809,0,0,0-.5109-1.71019,1.804,1.804,0,0,0-1.23634-.43835q-1.74723,0-1.74723,2.14854Z"/>
              <path class="cls-16" d="M971.42594,596.01136v9.44616h-2.53132a10.05658,10.05658,0,0,0-.67914-1.76575,5.51062,5.51062,0,0,1-4.64282,2.02506,6.96443,6.96443,0,0,1-5.359-2.27819,8.74788,8.74788,0,0,1-2.09917-6.16779,9.93856,9.93856,0,0,1,2.03126-6.353,7.231,7.231,0,0,1,6.04431-2.57454,7.33908,7.33908,0,0,1,4.85273,1.53114,7.20567,7.20567,0,0,1,2.38315,4.34647l-5.01326.49392q-.37044-2.63011-2.30906-2.63011-2.54367,0-2.54367,4.84038,0,2.92646.815,3.85872a2.5317,2.5317,0,0,0,1.97567.93227,2.3694,2.3694,0,0,0,1.59906-.568,1.97912,1.97912,0,0,0,.673-1.55584H963.832v-3.5809Z"/>
              <path class="cls-16" d="M986.63858,605.45751h-4.69221a8.33118,8.33118,0,0,1-.17287-1.7534,4.51482,4.51482,0,0,1-4.03777,2.01271,4.44622,4.44622,0,0,1-3.32776-1.136,3.63161,3.63161,0,0,1-1.10514-2.60541,3.73471,3.73471,0,0,1,1.809-3.21663q1.809-1.22862,6.41474-1.47558v-.284a1.291,1.291,0,0,0-.37661-1.099,1.87905,1.87905,0,0,0-1.10514-.27165q-1.704,0-1.90158,1.37062l-4.49464-.41983q.9631-3.939,6.55675-3.939a12.05743,12.05743,0,0,1,2.79063.30252,4.67825,4.67825,0,0,1,2.01271.94462,3.279,3.279,0,0,1,.994,1.35827,9.74143,9.74143,0,0,1,.25313,2.75359v5.01326A6.93042,6.93042,0,0,0,986.63858,605.45751Zm-5.112-5.87761q-3.14876.33339-3.14872,2.01271,0,1.136,1.24714,1.136a2.01644,2.01644,0,0,0,1.34592-.46922,2.7535,2.7535,0,0,0,.55566-2.07445Z"/>
              <path class="cls-16" d="M1007.84,605.45751h-4.77864v-7.85328a1.96434,1.96434,0,0,0-.22844-1.10514.935.935,0,0,0-.80879-.31487q-1.383,0-1.383,2.01271v7.26058h-4.72925v-7.85328q0-1.50645-1.1607-1.50645-1.19775,0-1.19775,1.50645v7.85328h-4.7416V592.89968h4.42056v1.69166a3.79757,3.79757,0,0,1,3.44507-1.951,3.75141,3.75141,0,0,1,3.5315,1.951,4.12148,4.12148,0,0,1,3.75377-1.951,4.34649,4.34649,0,0,1,2.13.50626,3.16045,3.16045,0,0,1,1.33357,1.30271,5.58186,5.58186,0,0,1,.41366,2.46341Z"/>
              <path class="cls-16" d="M1018.74317,600.95052l4.59343.3087a5.41936,5.41936,0,0,1-2.08062,3.15489,7.17924,7.17924,0,0,1-4.52551,1.30271,6.959,6.959,0,0,1-5.06265-1.83367,6.08555,6.08555,0,0,1-1.88923-4.55021,6.78988,6.78988,0,1,1,13.57036.11113q0,.25931-.01235.71618h-8.40893a3.25907,3.25907,0,0,0,.41983,1.75958,2.0365,2.0365,0,0,0,3.39568-.96931Zm-.33339-3.25985a2.27821,2.27821,0,0,0-.51038-1.71019,1.80624,1.80624,0,0,0-1.23685-.43835q-1.74723,0-1.74723,2.14854Z"/>
              <path class="cls-16" d="M1024.1639,601.90131l3.8896-.531q.33339,1.35827,2.64245,1.35827,1.91393,0,1.91393-.74088a.55142.55142,0,0,0-.37044-.50009,7.43454,7.43454,0,0,0-1.7534-.36426q-3.82785-.531-4.77864-1.6608a3.80826,3.80826,0,0,1-.95079-2.5128,3.70679,3.70679,0,0,1,1.60523-3.11785,6.89133,6.89133,0,0,1,4.21064-1.19157q4.56873,0,5.82822,3.29689l-3.72907.70383a2.15965,2.15965,0,0,0-2.18558-1.11131,2.50421,2.50421,0,0,0-1.17923.21609q-.389.21609-.389.426,0,.6174,1.1854.75117a24.78458,24.78458,0,0,1,4.187.70074,3.98837,3.98837,0,0,1,1.87586,1.30991,3.51122,3.51122,0,0,1,.77792,2.29774,3.80123,3.80123,0,0,1-1.72254,3.27426,8.137,8.137,0,0,1-4.74778,1.21113Q1025.374,605.71682,1024.1639,601.90131Z"/>
              <path class="cls-16" d="M947.45246,629.37029l4.72925.284a6.90373,6.90373,0,0,1-2.29054,4.75395,7.86256,7.86256,0,0,1-10.35373-.6174,8.85719,8.85719,0,0,1-2.11149-6.27274,9.74927,9.74927,0,0,1,2.00036-6.39622,7.82189,7.82189,0,0,1,10.72417-.58035,7.64042,7.64042,0,0,1,2.03123,4.91447l-4.828.25931a3.72288,3.72288,0,0,0-.64827-2.44489,1.95742,1.95742,0,0,0-1.525-.75322q-2.44489,0-2.44489,4.91447a7.56835,7.56835,0,0,0,.63592,3.74142,2.0085,2.0085,0,0,0,1.78427.98783Q947.2055,632.16092,947.45246,629.37029Z"/>
              <path class="cls-16" d="M966.11016,623.24572v12.55783h-4.55638v-2.0621a3.83766,3.83766,0,0,1-3.90194,2.32141,3.72154,3.72154,0,0,1-2.77211-.994,3.88035,3.88035,0,0,1-.98166-2.8462v-8.97694h4.92682v7.90267a1.96055,1.96055,0,0,0,.20374,1.0434.89761.89761,0,0,0,.79644.30252,1.2993,1.2993,0,0,0,1.02488-.4507,1.85766,1.85766,0,0,0,.39513-1.26566v-7.53223Z"/>
              <path class="cls-16" d="M973.63,639.76724h-4.92682V623.24572h4.53169v1.7781a3.54881,3.54881,0,0,1,3.54385-2.03741,4.11105,4.11105,0,0,1,3.51916,1.74723,9.50222,9.50222,0,0,1-.03087,9.55112,4.06391,4.06391,0,0,1-3.4389,1.7781,3.63316,3.63316,0,0,1-3.19811-1.60523Zm0-8.55711a1.99025,1.99025,0,0,0,.38279,1.30271,1.18614,1.18614,0,0,0,.95079.463,1.21758,1.21758,0,0,0,1.22244-.82114,7.13657,7.13657,0,0,0,.33339-2.52515,6.98571,6.98571,0,0,0-.38279-2.75976,1.22589,1.22589,0,0,0-1.14836-.79644,1.45559,1.45559,0,0,0-.90757.35809,1.41034,1.41034,0,0,0-.4507,1.17305Z"/>
            </g>
          </g>
          <polygon class="cls-17" points="925.888 583.873 959.875 648.818 998.861 648.818 964.874 583.873 925.888 583.873"/>
        </g>
        <g>
          <g>
            <circle class="cls-18" cx="959.47316" cy="337.28541" r="55.31868"/>
            <path class="cls-6" d="M959.47316,281.96673a55.31868,55.31868,0,1,0,55.31868,55.31868A55.31866,55.31866,0,0,0,959.47316,281.96673Zm0,103.26153a47.94285,47.94285,0,1,1,47.94285-47.94285A47.94284,47.94284,0,0,1,959.47316,385.22826Z"/>
            <polygon class="cls-19" points="964.388 309.667 972.644 307.308 972.579 304.883 959.473 304.948 946.368 304.883 946.302 307.308 954.559 309.667 954.559 365.365 946.433 367.855 946.433 370.215 958.752 370.215 960.194 370.215 972.513 370.215 972.513 367.855 964.388 365.365 964.388 309.667"/>
          </g>
          <polygon class="cls-7" points="964.388 309.667 972.644 307.308 972.579 304.883 971.656 304.883 971.591 307.308 962.988 309.667 962.988 365.365 971.722 367.855 971.722 370.215 972.513 370.215 972.513 367.855 964.388 365.365 964.388 309.667"/>
          <polygon class="cls-16" points="954.386 309.667 946.129 307.308 946.195 304.883 947.117 304.883 947.183 307.308 955.785 309.667 955.785 365.365 947.052 367.855 947.052 370.215 946.26 370.215 946.26 367.855 954.386 365.365 954.386 309.667"/>
          <polygon class="cls-20" points="1006.362 351.51 998.986 366.262 944.195 291.45 960 287.235 1006.362 351.51"/>
          <path class="cls-21" d="M959.47316,281.96673a55.31868,55.31868,0,1,0,55.31868,55.31868A55.31866,55.31866,0,0,0,959.47316,281.96673Zm0,108.53a53.2113,53.2113,0,1,1,53.2113-53.2113A53.21128,53.21128,0,0,1,959.47316,390.49671Z"/>
          <path class="cls-22" d="M959.47316,287.23517a50.05023,50.05023,0,1,0,50.05023,50.05023A50.05021,50.05021,0,0,0,959.47316,287.23517Zm0,97.99309a47.94285,47.94285,0,1,1,47.94285-47.94285A47.94284,47.94284,0,0,1,959.47316,385.22826Z"/>
        </g>
      </g>
      <g>
        <g>
          <rect class="cls-23" x="605.84455" y="385.22826" width="160.39256" height="69.54348" rx="12" ry="12"/>
          <rect class="cls-24" x="342.42228" y="185.02733" width="160.39256" height="69.54348" rx="12" ry="12"/>
          <rect class="cls-25" x="79" y="84.92686" width="160.39256" height="69.54348" rx="12" ry="12"/>
          <rect class="cls-26" x="79" y="285.12779" width="160.39256" height="69.54348" rx="12" ry="12"/>
          <rect class="cls-27" x="342.42228" y="585.42919" width="160.39256" height="69.54348" rx="12" ry="12"/>
          <rect class="cls-28" x="79" y="485.32872" width="160.39256" height="69.54348" rx="12" ry="12"/>
          <rect class="cls-29" x="79" y="685.52966" width="160.39256" height="69.54348" rx="12" ry="12"/>
          <rect class="cls-30" x="1153.76289" y="385.22826" width="160.39256" height="69.54348" rx="12" ry="12" transform="translate(2467.91834 840) rotate(-180)"/>
          <rect class="cls-31" x="1417.18517" y="185.02733" width="160.39256" height="69.54348" rx="12" ry="12" transform="translate(2994.76289 439.59814) rotate(-180)"/>
          <rect class="cls-32" x="1680.60744" y="84.92686" width="160.39256" height="69.54348" rx="12" ry="12" transform="translate(3521.60744 239.39721) rotate(-180)"/>
          <rect class="cls-33" x="1680.60744" y="285.12779" width="160.39256" height="69.54348" rx="12" ry="12" transform="translate(3521.60744 639.79907) rotate(-180)"/>
          <rect class="cls-34" x="1417.18517" y="585.42919" width="160.39256" height="69.54348" rx="12" ry="12" transform="translate(2994.76289 1240.40186) rotate(-180)"/>
          <rect class="cls-35" x="1680.60744" y="485.32872" width="160.39256" height="69.54348" rx="12" ry="12" transform="translate(3521.60744 1040.20093) rotate(-180)"/>
          <rect class="cls-36" x="1680.60744" y="685.52966" width="160.39256" height="69.54348" rx="12" ry="12" transform="translate(3521.60744 1440.60279) rotate(-180)"/>
        </g>
        <path class="cls-37" d="M79,119.6986V97.57113A12.68144,12.68144,0,0,1,91.64427,84.92686h135.104a12.68144,12.68144,0,0,1,12.64427,12.64427V119.6986Z"/>
        <path class="cls-37" d="M79,319.89953V342.027a12.68144,12.68144,0,0,0,12.64427,12.64427h135.104A12.68144,12.68144,0,0,0,239.39256,342.027V319.89953Z"/>
        <path class="cls-37" d="M79,520.10047V497.973a12.68144,12.68144,0,0,1,12.64427-12.64427h135.104A12.68144,12.68144,0,0,1,239.39256,497.973v22.12747Z"/>
        <path class="cls-37" d="M79,720.3014v22.12747a12.68144,12.68144,0,0,0,12.64427,12.64427h135.104a12.68144,12.68144,0,0,0,12.64427-12.64427V720.3014Z"/>
        <path class="cls-37" d="M1680.60744,119.6986V97.57113a12.68144,12.68144,0,0,1,12.64427-12.64427h135.104A12.68144,12.68144,0,0,1,1841,97.57113V119.6986Z"/>
        <path class="cls-37" d="M1680.60744,319.89953V342.027a12.68144,12.68144,0,0,0,12.64427,12.64427h135.104A12.68144,12.68144,0,0,0,1841,342.027V319.89953Z"/>
        <path class="cls-37" d="M1680.60744,520.10047V497.973a12.68144,12.68144,0,0,1,12.64427-12.64427h135.104A12.68144,12.68144,0,0,1,1841,497.973v22.12747Z"/>
        <path class="cls-37" d="M1680.60744,720.3014v22.12747a12.68144,12.68144,0,0,0,12.64427,12.64427h135.104A12.68144,12.68144,0,0,0,1841,742.42887V720.3014Z"/>
        <path class="cls-37" d="M342.42228,219.79907V197.6716a12.68144,12.68144,0,0,1,12.64427-12.64427h135.104a12.68144,12.68144,0,0,1,12.64427,12.64427v22.12747Z"/>
        <path class="cls-37" d="M605.84455,420V397.87253a12.68144,12.68144,0,0,1,12.64427-12.64427h135.104a12.68144,12.68144,0,0,1,12.64427,12.64427V420Z"/>
        <path class="cls-37" d="M1153.76289,420V397.87253a12.68144,12.68144,0,0,1,12.64427-12.64427h135.104a12.68144,12.68144,0,0,1,12.64427,12.64427V420Z"/>
        <path class="cls-37" d="M1417.18517,219.79907V197.6716a12.68144,12.68144,0,0,1,12.64427-12.64427h135.104a12.68144,12.68144,0,0,1,12.64427,12.64427v22.12747Z"/>
        <path class="cls-37" d="M342.42228,620.20093V642.3284a12.68144,12.68144,0,0,0,12.64427,12.64427h135.104a12.68144,12.68144,0,0,0,12.64427-12.64427V620.20093Z"/>
        <path class="cls-37" d="M1417.18517,620.20093V642.3284a12.68144,12.68144,0,0,0,12.64427,12.64427h135.104a12.68144,12.68144,0,0,0,12.64427-12.64427V620.20093Z"/>
      </g>
    </g>
  </g>
</svg>
